<svg xmlns="http://www.w3.org/2000/svg" width="13" height="13" viewBox="0 0 13 13"><g><g clip-path="url(#clip-165A29EE-47A5-4CE7-8A45-279EBA914F97)"><path fill="#211e26" d="M11.232 4.261L8.273 1.302a2.15 2.15 0 0 1 2.96 2.959zM4.703 10.85L3.541 9.688l5.867-5.866 1.171 1.17zm-3.656.646l.303-2.615 2.301 2.31zM7.55 1.955l1.176 1.176L2.85 9.005 1.673 7.828zM11.627.923A3.129 3.129 0 0 0 7.2.911l-.006.005c0 .002-.002.003-.003.004L.633 7.475a.49.49 0 0 0-.14.29l-.49 4.223a.49.49 0 0 0 .543.542l4.2-.49a.49.49 0 0 0 .29-.139l.008-.009.005-.004.004-.005 6.563-6.54a3.13 3.13 0 0 0 .01-4.42z"/></g></g></svg>